<svg width="98" height="18" viewBox="0 0 98 18" fill="none" xmlns="http://www.w3.org/2000/svg">
<path d="M11.928 13.808H5.256L4.152 17H0.624L6.648 0.223999H10.56L16.584 17H13.032L11.928 13.808ZM11.016 11.12L8.592 4.112L6.168 11.12H11.016ZM28.3397 8.408C29.2837 8.584 30.0597 9.056 30.6677 9.824C31.2757 10.592 31.5797 11.472 31.5797 12.464C31.5797 13.36 31.3557 14.152 30.9077 14.84C30.4757 15.512 29.8437 16.04 29.0117 16.424C28.1797 16.808 27.1957 17 26.0597 17H18.8357V0.248H25.7477C26.8837 0.248 27.8597 0.432 28.6757 0.8C29.5077 1.168 30.1317 1.68 30.5477 2.336C30.9797 2.992 31.1957 3.736 31.1957 4.568C31.1957 5.544 30.9317 6.36 30.4037 7.016C29.8917 7.672 29.2037 8.136 28.3397 8.408ZM22.1957 7.16H25.2677C26.0677 7.16 26.6837 6.984 27.1157 6.632C27.5477 6.264 27.7637 5.744 27.7637 5.072C27.7637 4.4 27.5477 3.88 27.1157 3.512C26.6837 3.144 26.0677 2.96 25.2677 2.96H22.1957V7.16ZM25.5797 14.264C26.3957 14.264 27.0277 14.072 27.4757 13.688C27.9397 13.304 28.1717 12.76 28.1717 12.056C28.1717 11.336 27.9317 10.776 27.4517 10.376C26.9717 9.96 26.3237 9.752 25.5077 9.752H22.1957V14.264H25.5797ZM40.0416 17.168C38.8736 17.168 37.8176 16.968 36.8736 16.568C35.9456 16.168 35.2096 15.592 34.6656 14.84C34.1216 14.088 33.8416 13.2 33.8256 12.176H37.4256C37.4736 12.864 37.7136 13.408 38.1456 13.808C38.5936 14.208 39.2016 14.408 39.9696 14.408C40.7536 14.408 41.3696 14.224 41.8176 13.856C42.2656 13.472 42.4896 12.976 42.4896 12.368C42.4896 11.872 42.3376 11.464 42.0336 11.144C41.7296 10.824 41.3456 10.576 40.8816 10.4C40.4336 10.208 39.8096 10 39.0096 9.776C37.9216 9.456 37.0336 9.144 36.3456 8.84C35.6736 8.52 35.0896 8.048 34.5936 7.424C34.1136 6.784 33.8736 5.936 33.8736 4.88C33.8736 3.888 34.1216 3.024 34.6176 2.288C35.1136 1.552 35.8096 0.991999 36.7056 0.607999C37.6016 0.208 38.6256 0.0079999 39.7776 0.0079999C41.5056 0.0079999 42.9056 0.432 43.9776 1.28C45.0656 2.112 45.6656 3.28 45.7776 4.784H42.0816C42.0496 4.208 41.8016 3.736 41.3376 3.368C40.8896 2.984 40.2896 2.792 39.5376 2.792C38.8816 2.792 38.3536 2.96 37.9536 3.296C37.5696 3.632 37.3776 4.12 37.3776 4.76C37.3776 5.208 37.5216 5.584 37.8096 5.888C38.1136 6.176 38.4816 6.416 38.9136 6.608C39.3616 6.784 39.9856 6.992 40.7856 7.232C41.8736 7.552 42.7616 7.872 43.4496 8.192C44.1376 8.512 44.7296 8.992 45.2256 9.632C45.7216 10.272 45.9696 11.112 45.9696 12.152C45.9696 13.048 45.7376 13.88 45.2736 14.648C44.8096 15.416 44.1296 16.032 43.2336 16.496C42.3376 16.944 41.2736 17.168 40.0416 17.168ZM52.2426 2.96V7.16H57.8826V9.824H52.2426V14.264H58.6026V17H48.8826V0.223999H58.6026V2.96H52.2426ZM75.984 17H72.624L65.016 5.504V17H61.656V0.223999H65.016L72.624 11.744V0.223999H75.984V17ZM85.0884 17.168C83.9204 17.168 82.8644 16.968 81.9204 16.568C80.9924 16.168 80.2564 15.592 79.7124 14.84C79.1684 14.088 78.8884 13.2 78.8724 12.176H82.4724C82.5204 12.864 82.7604 13.408 83.1924 13.808C83.6404 14.208 84.2484 14.408 85.0164 14.408C85.8004 14.408 86.4164 14.224 86.8644 13.856C87.3124 13.472 87.5364 12.976 87.5364 12.368C87.5364 11.872 87.3844 11.464 87.0804 11.144C86.7764 10.824 86.3924 10.576 85.9284 10.4C85.4804 10.208 84.8564 10 84.0564 9.776C82.9684 9.456 82.0804 9.144 81.3924 8.84C80.7204 8.52 80.1364 8.048 79.6404 7.424C79.1604 6.784 78.9204 5.936 78.9204 4.88C78.9204 3.888 79.1684 3.024 79.6644 2.288C80.1604 1.552 80.8564 0.991999 81.7524 0.607999C82.6484 0.208 83.6724 0.0079999 84.8244 0.0079999C86.5524 0.0079999 87.9524 0.432 89.0244 1.28C90.1124 2.112 90.7124 3.28 90.8244 4.784H87.1284C87.0964 4.208 86.8484 3.736 86.3844 3.368C85.9364 2.984 85.3364 2.792 84.5844 2.792C83.9284 2.792 83.4004 2.96 83.0004 3.296C82.6164 3.632 82.4244 4.12 82.4244 4.76C82.4244 5.208 82.5684 5.584 82.8564 5.888C83.1604 6.176 83.5284 6.416 83.9604 6.608C84.4084 6.784 85.0324 6.992 85.8324 7.232C86.9204 7.552 87.8084 7.872 88.4964 8.192C89.1844 8.512 89.7764 8.992 90.2724 9.632C90.7684 10.272 91.0164 11.112 91.0164 12.152C91.0164 13.048 90.7844 13.88 90.3204 14.648C89.8564 15.416 89.1764 16.032 88.2804 16.496C87.3844 16.944 86.3204 17.168 85.0884 17.168ZM97.2894 0.248V17H93.9294V0.248H97.2894Z" fill="white"/>
</svg>
